<svg width="18" height="18" viewBox="0 0 18 18" fill="none" xmlns="http://www.w3.org/2000/svg">
<path d="M8.5 6H7.075C6.34732 5.98997 5.63896 6.23422 5.07211 6.69062C4.50526 7.14702 4.11548 7.78694 3.97 8.5H1V9.5H3.965C4.10793 10.2153 4.49771 10.8575 5.06621 11.3145C5.6347 11.7715 6.34574 12.0141 7.075 12H8.5V6Z" fill="black"/>
<path d="M14.115 8.5C13.9692 7.78523 13.578 7.14399 13.009 6.68739C12.4401 6.23079 11.7294 5.98762 11 6H9.5V12H11C11.7293 12.0141 12.4403 11.7715 13.0088 11.3145C13.5773 10.8575 13.9671 10.2153 14.11 9.5H17V8.5H14.115Z" fill="black"/>
</svg>
