<svg width="14" height="15" viewBox="0 0 14 15" fill="none" xmlns="http://www.w3.org/2000/svg">
<path d="M13.6667 2.84444L12.0222 1.2C11.8809 1.06523 11.6931 0.990051 11.4978 0.990051C11.3025 0.990051 11.1147 1.06523 10.9733 1.2L9.5111 2.66667H1.66666C1.43091 2.66667 1.20482 2.76032 1.03812 2.92701C0.871421 3.09371 0.777771 3.31981 0.777771 3.55555V13.3333C0.777771 13.5691 0.871421 13.7952 1.03812 13.9619C1.20482 14.1286 1.43091 14.2222 1.66666 14.2222H11.4444C11.6802 14.2222 11.9063 14.1286 12.073 13.9619C12.2397 13.7952 12.3333 13.5691 12.3333 13.3333V5.22667L13.6667 3.89333C13.8056 3.75417 13.8837 3.56555 13.8837 3.36889C13.8837 3.17223 13.8056 2.98361 13.6667 2.84444ZM7.36888 8.94666L5.50666 9.36L5.9511 7.51555L10.1955 3.26222L11.6311 4.69778L7.36888 8.94666ZM12.1111 4.19111L10.6755 2.75555L11.4978 1.93333L12.9333 3.36889L12.1111 4.19111Z" fill="#7E7A7A"/>
</svg>
