<svg width="12" height="12" viewBox="0 0 12 12" fill="none" xmlns="http://www.w3.org/2000/svg">
<path d="M11.855 0.145C11.7875 0.0778368 11.7023 0.0313354 11.6093 0.0109634C11.5163 -0.0094085 11.4194 -0.00280407 11.33 0.0300002L0.33 4.03C0.235134 4.06598 0.15346 4.12998 0.0958259 4.21348C0.0381915 4.29698 0.00732422 4.39604 0.00732422 4.4975C0.00732422 4.59896 0.0381915 4.69802 0.0958259 4.78152C0.15346 4.86502 0.235134 4.92902 0.33 4.965L4.625 6.68L7.795 3.5L8.5 4.205L5.315 7.39L7.035 11.685C7.07205 11.778 7.13619 11.8578 7.21909 11.914C7.302 11.9701 7.39986 12.0001 7.5 12C7.60104 11.9979 7.69909 11.9653 7.7812 11.9064C7.86332 11.8475 7.92566 11.7651 7.96 11.67L11.96 0.67C11.9941 0.581538 12.0023 0.485215 11.9837 0.392262C11.9651 0.299309 11.9205 0.213555 11.855 0.145Z" fill="#7E7A7A"/>
</svg>
