<svg width="14" height="14" viewBox="0 0 14 14" fill="none" xmlns="http://www.w3.org/2000/svg">
<path d="M13.2422 9.93281C13.2366 9.91728 13.228 9.903 13.2169 9.89081C13.2057 9.87861 13.1923 9.86875 13.1773 9.86177C13.1624 9.8548 13.1462 9.85086 13.1297 9.85018C13.1132 9.8495 13.0967 9.85209 13.0813 9.85781L12.125 10.2063V1.79688C12.125 1.20938 11.65 0.734375 11.0625 0.734375H2.9375C2.35 0.734375 1.875 1.20938 1.875 1.79688V10.2063L0.917187 9.85781C0.903125 9.85313 0.889062 9.85 0.875 9.85C0.80625 9.85 0.75 9.90625 0.75 9.975V10.9062C0.75 10.9578 0.782813 11.0047 0.832813 11.0234L6.82812 13.2047C6.93906 13.2453 7.05938 13.2453 7.17031 13.2047L13.1672 11.025C13.2172 11.0062 13.25 10.9594 13.25 10.9078V9.97656C13.25 9.96094 13.2469 9.94688 13.2422 9.93281ZM9.43281 4.04219L7.8125 7.03594H8.7125C8.78125 7.03594 8.8375 7.09219 8.8375 7.16094V7.58438C8.8375 7.65313 8.78125 7.70938 8.7125 7.70938H7.52031V8.31875H8.7125C8.78125 8.31875 8.8375 8.375 8.8375 8.44375V8.86719C8.8375 8.93594 8.78125 8.99219 8.7125 8.99219H7.52031V9.98438C7.52031 10.0531 7.46406 10.1094 7.39531 10.1094H6.61562C6.54688 10.1094 6.49062 10.0531 6.49062 9.98438V8.99375H5.30312C5.23438 8.99375 5.17812 8.9375 5.17812 8.86875V8.44531C5.17812 8.37656 5.23438 8.32031 5.30312 8.32031H6.49062V7.71094H5.30312C5.23438 7.71094 5.17812 7.65469 5.17812 7.58594V7.1625C5.17812 7.09375 5.23438 7.0375 5.30312 7.0375H6.19375L4.57031 4.04375C4.5375 3.98437 4.55938 3.90781 4.62031 3.875C4.63906 3.86406 4.65937 3.85938 4.67969 3.85938H5.55C5.57303 3.8595 5.59558 3.86599 5.61515 3.87812C5.63473 3.89025 5.65057 3.90756 5.66094 3.92812L6.98438 6.56563H7.03594L8.35938 3.92812C8.37969 3.88594 8.42344 3.85938 8.47031 3.85938H9.32187C9.39062 3.85938 9.44688 3.91562 9.44844 3.98281C9.44844 4.00312 9.44219 4.02344 9.43281 4.04219Z" fill="#7E7A7A"/>
</svg>
