<svg width="292" height="292" viewBox="0 0 292 292" fill="none" xmlns="http://www.w3.org/2000/svg">
<path d="M113.918 96.6316C136.354 130.409 126.239 152.425 105.999 167.899C85.7604 183.374 63.0622 186.448 40.6254 152.671C18.1886 118.893 16.407 78.9667 36.6461 63.4919C56.8852 48.0172 91.4808 62.8543 113.918 96.6316Z" fill="#5483ED"/>
<path d="M168.879 179.521C183.303 201.235 187.796 224.342 156.313 248.414C124.83 272.486 87.6156 274.397 73.1919 252.683C58.7682 230.969 72.5976 193.853 104.081 169.781C135.564 145.709 154.455 157.807 168.879 179.521Z" fill="#F0BF42"/>
<path d="M216.36 39.3167C230.784 61.0306 216.955 98.1474 185.472 122.219C153.989 146.291 137.54 132.325 123.116 110.611C108.693 88.8969 101.756 67.6578 133.239 43.586C164.722 19.5141 201.937 17.6027 216.36 39.3167Z" fill="#D6503F"/>
<path d="M177.758 193.812C155.321 160.034 165.727 138.456 185.966 122.981C206.205 107.506 228.613 103.995 251.05 137.773C273.487 171.55 275.268 211.477 255.029 226.951C234.79 242.426 200.194 227.589 177.758 193.812Z" fill="#57A65B"/>
</svg>
