<svg width="32" height="32" viewBox="0 0 32 32" fill="none" xmlns="http://www.w3.org/2000/svg">
<path d="M18.93 17.3L16.977 3H16.831C13.4215 3.00579 10.1529 4.36115 7.73976 6.7698C5.32661 9.17845 3.96516 12.4445 3.953 15.854V16L18.93 17.3Z" fill="#ED6C47"/>
<path d="M17.123 3H16.977V16L23.488 18.6L30 16V15.854C29.9878 12.4447 28.6265 9.17878 26.2136 6.77015C23.8007 4.36153 20.5323 3.00606 17.123 3Z" fill="#FF8F6B"/>
<path d="M30 16V16.143C29.9873 19.553 28.6255 22.8193 26.2121 25.2284C23.7988 27.6375 20.53 28.9934 17.12 29H16.833C13.4232 28.9929 10.1547 27.6368 7.74144 25.2278C5.32817 22.8188 3.9662 19.5528 3.953 16.143V16H30Z" fill="#D35230"/>
<path opacity="0.1" d="M17.628 9.38901V23.26C17.6262 23.496 17.5549 23.7262 17.4229 23.9219C17.2909 24.1175 17.1042 24.2699 16.886 24.36C16.7436 24.42 16.5906 24.451 16.436 24.451H7.02701C6.84446 24.2416 6.67065 24.0248 6.50601 23.801C4.8473 21.593 3.95128 18.9056 3.95301 16.144V15.858C3.94987 13.3669 4.6791 10.9299 6.05001 8.85001C6.19218 8.62661 6.34433 8.40972 6.50601 8.20001H16.436C16.751 8.2021 17.0525 8.32794 17.2755 8.55039C17.4985 8.77283 17.6251 9.07404 17.628 9.38901Z" fill="black"/>
<path opacity="0.2" d="M16.977 10.04V23.911C16.977 24.0649 16.946 24.2173 16.886 24.359C16.7958 24.577 16.6433 24.7635 16.4477 24.8953C16.252 25.0271 16.0219 25.0983 15.786 25.1H7.62001C7.41401 24.8907 7.21635 24.674 7.02701 24.45C6.84446 24.2406 6.67065 24.0238 6.50601 23.8C4.8473 21.592 3.95128 18.9046 3.95301 16.143V15.857C3.95006 13.3663 4.67929 10.9296 6.05001 8.85001H15.785C16.1002 8.8521 16.4018 8.97808 16.6249 9.20074C16.8479 9.4234 16.9744 9.72486 16.977 10.04Z" fill="black"/>
<path opacity="0.2" d="M16.977 10.04V22.611C16.9741 22.926 16.8475 23.2272 16.6245 23.4496C16.4015 23.6721 16.1 23.7979 15.785 23.8H6.50601C4.8473 21.592 3.95128 18.9046 3.95301 16.143V15.857C3.95006 13.3663 4.67929 10.9296 6.05001 8.85001H15.785C16.1002 8.8521 16.4018 8.97808 16.6249 9.20074C16.8479 9.4234 16.9744 9.72486 16.977 10.04Z" fill="black"/>
<path opacity="0.2" d="M16.326 10.04V22.611C16.3231 22.926 16.1965 23.2272 15.9735 23.4496C15.7505 23.6721 15.449 23.7979 15.134 23.8H6.50601C4.8473 21.592 3.95128 18.9046 3.95301 16.143V15.857C3.95006 13.3663 4.67929 10.9296 6.05001 8.85001H15.134C15.4492 8.8521 15.7508 8.97808 15.9739 9.20074C16.1969 9.4234 16.3234 9.72486 16.326 10.04Z" fill="black"/>
<path d="M3.194 8.85001H15.132C15.4482 8.84974 15.7516 8.97504 15.9755 9.19837C16.1994 9.4217 16.3255 9.72478 16.326 10.041V21.959C16.3255 22.2752 16.1994 22.5783 15.9755 22.8016C15.7516 23.025 15.4482 23.1503 15.132 23.15H3.194C3.03738 23.1503 2.88224 23.1197 2.73746 23.0599C2.59267 23.0002 2.46108 22.9125 2.35019 22.8019C2.2393 22.6913 2.1513 22.56 2.09121 22.4153C2.03113 22.2707 2.00013 22.1156 2 21.959V10.041C2.00013 9.88439 2.03113 9.72933 2.09121 9.58469C2.1513 9.44006 2.2393 9.30868 2.35019 9.19808C2.46108 9.08747 2.59267 8.9998 2.73746 8.94007C2.88224 8.88035 3.03738 8.84974 3.194 8.85001Z" fill="url(#paint0_linear_5715_106499)"/>
<path d="M9.29299 12.028C10.0701 11.9757 10.8406 12.2011 11.467 12.664C11.7246 12.8933 11.9265 13.1783 12.0575 13.4972C12.1885 13.8162 12.2451 14.1609 12.223 14.505C12.2317 14.9898 12.1024 15.467 11.85 15.881C11.5947 16.2884 11.2269 16.6131 10.791 16.816C10.293 17.047 9.74883 17.1612 9.19999 17.15H7.68699V19.95H6.14099V12.028H9.29299ZM7.68599 15.94H9.01699C9.439 15.9704 9.85758 15.8456 10.194 15.589C10.3316 15.4578 10.4387 15.298 10.5078 15.1209C10.5769 14.9438 10.6063 14.7537 10.594 14.564C10.594 13.6913 10.0857 13.2547 9.06899 13.254H7.68599V15.94Z" fill="white"/>
<defs>
<linearGradient id="paint0_linear_5715_106499" x1="4.494" y1="7.91401" x2="13.832" y2="24.086" gradientUnits="userSpaceOnUse">
<stop stop-color="#CA4C28"/>
<stop offset="0.5" stop-color="#C5401E"/>
<stop offset="1" stop-color="#B62F14"/>
</linearGradient>
</defs>
</svg>
