<svg width="32" height="32" viewBox="0 0 32 32" fill="none" xmlns="http://www.w3.org/2000/svg">
<path d="M19.581 15.35L8.51202 13.4V27.809C8.51216 27.9655 8.54312 28.1205 8.60314 28.2651C8.66317 28.4096 8.75108 28.541 8.86186 28.6516C8.97264 28.7622 9.10412 28.8499 9.24879 28.9096C9.39346 28.9694 9.54849 29.0001 9.70502 29H28.805C28.9617 29.0004 29.117 28.9699 29.2619 28.9102C29.4068 28.8506 29.5385 28.7629 29.6495 28.6523C29.7605 28.5417 29.8486 28.4102 29.9087 28.2655C29.9689 28.1208 29.9999 27.9657 30 27.809V22.5L19.581 15.35Z" fill="#185C37"/>
<path d="M19.581 3H9.70502C9.54849 2.99987 9.39346 3.03057 9.24879 3.09035C9.10412 3.15014 8.97264 3.23783 8.86186 3.34842C8.75108 3.45902 8.66317 3.59035 8.60314 3.73492C8.54312 3.87949 8.51216 4.03446 8.51202 4.191V9.5L19.581 16L25.442 17.95L30 16V9.5L19.581 3Z" fill="#21A366"/>
<path d="M8.51202 9.5H19.581V16H8.51202V9.5Z" fill="#107C41"/>
<path opacity="0.1" d="M16.434 8.20001H8.51202V24.45H16.434C16.7497 24.4484 17.052 24.3226 17.2755 24.0996C17.499 23.8767 17.6257 23.5747 17.628 23.259V9.39101C17.6257 9.07535 17.499 8.77333 17.2755 8.5504C17.052 8.32747 16.7497 8.20158 16.434 8.20001Z" fill="black"/>
<path opacity="0.2" d="M15.783 8.85001H8.51202V25.1H15.783C16.0987 25.0984 16.401 24.9725 16.6245 24.7496C16.848 24.5267 16.9747 24.2247 16.977 23.909V10.041C16.9747 9.72534 16.848 9.42333 16.6245 9.2004C16.401 8.97747 16.0987 8.85158 15.783 8.85001Z" fill="black"/>
<path opacity="0.2" d="M15.783 8.85001H8.51202V23.8H15.783C16.0987 23.7984 16.401 23.6725 16.6245 23.4496C16.848 23.2267 16.9747 22.9247 16.977 22.609V10.041C16.9747 9.72534 16.848 9.42333 16.6245 9.2004C16.401 8.97747 16.0987 8.85158 15.783 8.85001Z" fill="black"/>
<path opacity="0.2" d="M15.132 8.85001H8.51202V23.8H15.132C15.4477 23.7984 15.75 23.6725 15.9735 23.4496C16.197 23.2267 16.3237 22.9247 16.326 22.609V10.041C16.3237 9.72534 16.197 9.42333 15.9735 9.2004C15.75 8.97747 15.4477 8.85158 15.132 8.85001Z" fill="black"/>
<path d="M3.194 8.85001H15.132C15.4482 8.84974 15.7516 8.97504 15.9755 9.19837C16.1994 9.4217 16.3255 9.72478 16.326 10.041V21.959C16.3255 22.2752 16.1994 22.5783 15.9755 22.8016C15.7516 23.025 15.4482 23.1503 15.132 23.15H3.194C3.03738 23.1503 2.88224 23.1197 2.73746 23.0599C2.59267 23.0002 2.46108 22.9125 2.35019 22.8019C2.2393 22.6913 2.1513 22.56 2.09121 22.4153C2.03113 22.2707 2.00013 22.1156 2 21.959V10.041C2.00013 9.88439 2.03113 9.72933 2.09121 9.58469C2.1513 9.44006 2.2393 9.30868 2.35019 9.19808C2.46108 9.08747 2.59267 8.9998 2.73746 8.94007C2.88224 8.88035 3.03738 8.84974 3.194 8.85001Z" fill="url(#paint0_linear_5715_106487)"/>
<path d="M5.70001 19.873L8.21101 15.989L5.91101 12.127H7.75801L9.01301 14.6C9.12901 14.834 9.21301 15.008 9.25101 15.124H9.26801C9.35001 14.936 9.43701 14.755 9.52801 14.578L10.87 12.131H12.57L10.211 15.971L12.63 19.876H10.821L9.37101 17.165C9.30369 17.0485 9.24648 16.9263 9.20001 16.8H9.17601C9.13373 16.9231 9.07736 17.0409 9.00801 17.151L7.51501 19.873H5.70001Z" fill="white"/>
<path d="M28.806 3H19.581V9.5H30V4.191C29.9999 4.03438 29.9689 3.87932 29.9088 3.73469C29.8487 3.59005 29.7607 3.45868 29.6498 3.34807C29.5389 3.23746 29.4073 3.14979 29.2625 3.09007C29.1178 3.03034 28.9626 2.99974 28.806 3Z" fill="#33C481"/>
<path d="M19.581 16H30V22.5H19.581V16Z" fill="#107C41"/>
<defs>
<linearGradient id="paint0_linear_5715_106487" x1="4.494" y1="7.91401" x2="13.832" y2="24.086" gradientUnits="userSpaceOnUse">
<stop stop-color="#18884F"/>
<stop offset="0.5" stop-color="#117E43"/>
<stop offset="1" stop-color="#0B6631"/>
</linearGradient>
</defs>
</svg>
