<svg width="32" height="32" viewBox="0 0 32 32" fill="none" xmlns="http://www.w3.org/2000/svg">
<path d="M27.667 27.667V17.333L23 15V2H4.33301V30H27.667V27.667ZM23 27.667V18.556L25.333 19.778V27.667H23Z" fill="#C09553"/>
<path d="M17.65 25.559H21.1V26.552H17.65V25.559Z" fill="url(#paint0_linear_5715_106509)"/>
<path d="M17.65 23.26H21.1V24.253H17.65V23.26Z" fill="url(#paint1_linear_5715_106509)"/>
<path d="M17.65 20.96H21.1V21.953H17.65V20.96Z" fill="url(#paint2_linear_5715_106509)"/>
<path d="M17.65 18.66H21.1V19.653H17.65V18.66Z" fill="url(#paint3_linear_5715_106509)"/>
<path d="M17.65 16.36H21.1V17.353H17.65V16.36Z" fill="url(#paint4_linear_5715_106509)"/>
<path d="M17.65 14.06H21.1V15.053H17.65V14.06Z" fill="url(#paint5_linear_5715_106509)"/>
<path d="M17.65 11.76H21.1V12.753H17.65V11.76Z" fill="url(#paint6_linear_5715_106509)"/>
<path d="M17.65 9.461H21.1V10.454H17.65V9.461Z" fill="url(#paint7_linear_5715_106509)"/>
<path d="M17.65 7.16101H21.1V8.15401H17.65V7.16101Z" fill="url(#paint8_linear_5715_106509)"/>
<path d="M16.237 26.721H19.687V27.714H16.237V26.721Z" fill="url(#paint9_linear_5715_106509)"/>
<path d="M16.237 24.421H19.687V25.414H16.237V24.421Z" fill="url(#paint10_linear_5715_106509)"/>
<path d="M16.237 22.121H19.687V23.114H16.237V22.121Z" fill="url(#paint11_linear_5715_106509)"/>
<path d="M16.237 19.821H19.687V20.814H16.237V19.821Z" fill="url(#paint12_linear_5715_106509)"/>
<path d="M16.237 17.522H19.687V18.515H16.237V17.522Z" fill="url(#paint13_linear_5715_106509)"/>
<path d="M17.65 27.859H21.1V28.852H17.65V27.859Z" fill="url(#paint14_linear_5715_106509)"/>
<path d="M16.237 15.222H19.687V16.215H16.237V15.222Z" fill="url(#paint15_linear_5715_106509)"/>
<path d="M16.237 12.922H19.687V13.915H16.237V12.922Z" fill="url(#paint16_linear_5715_106509)"/>
<path d="M16.237 10.622H19.687V11.615H16.237V10.622Z" fill="url(#paint17_linear_5715_106509)"/>
<path d="M16.237 8.32199H19.687V9.31499H16.237V8.32199Z" fill="url(#paint18_linear_5715_106509)"/>
<path d="M16.237 29.018H19.687V30.011H16.237V29.018Z" fill="url(#paint19_linear_5715_106509)"/>
<path d="M20.1 5.91101C20.0939 5.76931 20.0336 5.63536 19.9317 5.53676C19.8297 5.43816 19.6938 5.38242 19.552 5.38101H19.543V5.93801H19.635L19.841 8.45201H17.589L17.8 5.93801H17.894V5.38101H17.85C17.7082 5.38218 17.5723 5.43788 17.4705 5.53656C17.3686 5.63523 17.3087 5.76932 17.303 5.91101L16.989 16.48C16.9866 16.549 16.9981 16.6179 17.023 16.6823C17.0478 16.7468 17.0854 16.8056 17.1335 16.8552C17.1815 16.9048 17.2392 16.9441 17.3028 16.9709C17.3665 16.9977 17.4349 17.0113 17.504 17.011H19.936C20.005 17.0112 20.0733 16.9974 20.1368 16.9706C20.2003 16.9437 20.2577 16.9043 20.3056 16.8548C20.3535 16.8052 20.3909 16.7464 20.4156 16.682C20.4402 16.6176 20.4516 16.5489 20.449 16.48L20.1 5.91101ZM18.716 16.411C18.4844 16.411 18.258 16.3423 18.0655 16.2137C17.8729 16.085 17.7228 15.9021 17.6342 15.6881C17.5455 15.4742 17.5223 15.2387 17.5675 15.0116C17.6127 14.7844 17.7242 14.5758 17.888 14.412C18.0518 14.2482 18.2604 14.1367 18.4876 14.0915C18.7147 14.0463 18.9502 14.0695 19.1641 14.1581C19.3781 14.2468 19.561 14.3969 19.6897 14.5894C19.8183 14.782 19.887 15.0084 19.887 15.24C19.8862 15.5501 19.7625 15.8471 19.543 16.0661C19.3235 16.2851 19.0261 16.408 18.716 16.408V16.411Z" fill="url(#paint20_linear_5715_106509)"/>
<path d="M18.096 3.802H19.336V6.856H18.096V3.802Z" fill="url(#paint21_linear_5715_106509)"/>
<path d="M21.4 4.55999C21.4 3.88395 21.1314 3.2356 20.6534 2.75757C20.1754 2.27954 19.527 2.01099 18.851 2.01099H18.575C18.176 2.01118 17.7827 2.10497 17.4266 2.28482C17.0705 2.46468 16.7615 2.72558 16.5246 3.04655C16.2877 3.36752 16.1294 3.7396 16.0624 4.13289C15.9954 4.52617 16.0216 4.92968 16.139 5.31099V5.31699C16.3639 6.15092 16.452 7.01582 16.4 7.87799C16.4154 8.12215 16.4802 8.36066 16.5904 8.57911C16.7005 8.79755 16.8538 8.99141 17.041 9.14899L17.15 5.70799C17.1607 5.55689 17.2288 5.41562 17.3404 5.31316C17.452 5.2107 17.5985 5.15482 17.75 5.15699H17.885V3.58699H19.538V5.15699H19.638C19.7898 5.15521 19.9367 5.21109 20.049 5.31335C20.1613 5.4156 20.2306 5.55663 20.243 5.70799L20.364 9.16999C20.5581 9.01223 20.7175 8.816 20.8321 8.59365C20.9467 8.3713 21.0141 8.12764 21.03 7.87799V7.71999C20.9863 6.92618 21.0659 6.1304 21.266 5.36099C21.3533 5.10289 21.3985 4.83244 21.4 4.55999Z" fill="url(#paint22_linear_5715_106509)"/>
<defs>
<linearGradient id="paint0_linear_5715_106509" x1="17.65" y1="26.056" x2="21.099" y2="26.056" gradientUnits="userSpaceOnUse">
<stop stop-color="#4D4D4D"/>
<stop offset="0.5" stop-color="white"/>
<stop offset="1" stop-color="#4D4D4D"/>
</linearGradient>
<linearGradient id="paint1_linear_5715_106509" x1="17.65" y1="23.756" x2="21.099" y2="23.756" gradientUnits="userSpaceOnUse">
<stop stop-color="#4D4D4D"/>
<stop offset="0.5" stop-color="white"/>
<stop offset="1" stop-color="#4D4D4D"/>
</linearGradient>
<linearGradient id="paint2_linear_5715_106509" x1="17.65" y1="21.456" x2="21.099" y2="21.456" gradientUnits="userSpaceOnUse">
<stop stop-color="#4D4D4D"/>
<stop offset="0.5" stop-color="white"/>
<stop offset="1" stop-color="#4D4D4D"/>
</linearGradient>
<linearGradient id="paint3_linear_5715_106509" x1="17.65" y1="19.156" x2="21.099" y2="19.156" gradientUnits="userSpaceOnUse">
<stop stop-color="#4D4D4D"/>
<stop offset="0.5" stop-color="white"/>
<stop offset="1" stop-color="#4D4D4D"/>
</linearGradient>
<linearGradient id="paint4_linear_5715_106509" x1="17.65" y1="16.857" x2="21.099" y2="16.857" gradientUnits="userSpaceOnUse">
<stop stop-color="#4D4D4D"/>
<stop offset="0.5" stop-color="white"/>
<stop offset="1" stop-color="#4D4D4D"/>
</linearGradient>
<linearGradient id="paint5_linear_5715_106509" x1="17.65" y1="14.557" x2="21.099" y2="14.557" gradientUnits="userSpaceOnUse">
<stop stop-color="#4D4D4D"/>
<stop offset="0.5" stop-color="white"/>
<stop offset="1" stop-color="#4D4D4D"/>
</linearGradient>
<linearGradient id="paint6_linear_5715_106509" x1="17.65" y1="12.257" x2="21.099" y2="12.257" gradientUnits="userSpaceOnUse">
<stop stop-color="#4D4D4D"/>
<stop offset="0.5" stop-color="white"/>
<stop offset="1" stop-color="#4D4D4D"/>
</linearGradient>
<linearGradient id="paint7_linear_5715_106509" x1="17.65" y1="9.957" x2="21.099" y2="9.957" gradientUnits="userSpaceOnUse">
<stop stop-color="#4D4D4D"/>
<stop offset="0.5" stop-color="white"/>
<stop offset="1" stop-color="#4D4D4D"/>
</linearGradient>
<linearGradient id="paint8_linear_5715_106509" x1="17.65" y1="7.65701" x2="21.099" y2="7.65701" gradientUnits="userSpaceOnUse">
<stop stop-color="#4D4D4D"/>
<stop offset="0.5" stop-color="white"/>
<stop offset="1" stop-color="#4D4D4D"/>
</linearGradient>
<linearGradient id="paint9_linear_5715_106509" x1="16.237" y1="27.217" x2="19.686" y2="27.217" gradientUnits="userSpaceOnUse">
<stop stop-color="#4D4D4D"/>
<stop offset="0.5" stop-color="white"/>
<stop offset="1" stop-color="#4D4D4D"/>
</linearGradient>
<linearGradient id="paint10_linear_5715_106509" x1="16.237" y1="24.918" x2="19.686" y2="24.918" gradientUnits="userSpaceOnUse">
<stop stop-color="#4D4D4D"/>
<stop offset="0.5" stop-color="white"/>
<stop offset="1" stop-color="#4D4D4D"/>
</linearGradient>
<linearGradient id="paint11_linear_5715_106509" x1="16.237" y1="22.618" x2="19.686" y2="22.618" gradientUnits="userSpaceOnUse">
<stop stop-color="#4D4D4D"/>
<stop offset="0.5" stop-color="white"/>
<stop offset="1" stop-color="#4D4D4D"/>
</linearGradient>
<linearGradient id="paint12_linear_5715_106509" x1="16.237" y1="20.318" x2="19.686" y2="20.318" gradientUnits="userSpaceOnUse">
<stop stop-color="#4D4D4D"/>
<stop offset="0.5" stop-color="white"/>
<stop offset="1" stop-color="#4D4D4D"/>
</linearGradient>
<linearGradient id="paint13_linear_5715_106509" x1="16.237" y1="18.018" x2="19.686" y2="18.018" gradientUnits="userSpaceOnUse">
<stop stop-color="#4D4D4D"/>
<stop offset="0.5" stop-color="white"/>
<stop offset="1" stop-color="#4D4D4D"/>
</linearGradient>
<linearGradient id="paint14_linear_5715_106509" x1="17.65" y1="28.356" x2="21.099" y2="28.356" gradientUnits="userSpaceOnUse">
<stop stop-color="#4D4D4D"/>
<stop offset="0.5" stop-color="white"/>
<stop offset="1" stop-color="#4D4D4D"/>
</linearGradient>
<linearGradient id="paint15_linear_5715_106509" x1="16.237" y1="15.718" x2="19.686" y2="15.718" gradientUnits="userSpaceOnUse">
<stop stop-color="#4D4D4D"/>
<stop offset="0.5" stop-color="white"/>
<stop offset="1" stop-color="#4D4D4D"/>
</linearGradient>
<linearGradient id="paint16_linear_5715_106509" x1="16.237" y1="13.419" x2="19.686" y2="13.419" gradientUnits="userSpaceOnUse">
<stop stop-color="#4D4D4D"/>
<stop offset="0.5" stop-color="white"/>
<stop offset="1" stop-color="#4D4D4D"/>
</linearGradient>
<linearGradient id="paint17_linear_5715_106509" x1="16.237" y1="11.119" x2="19.686" y2="11.119" gradientUnits="userSpaceOnUse">
<stop stop-color="#4D4D4D"/>
<stop offset="0.5" stop-color="white"/>
<stop offset="1" stop-color="#4D4D4D"/>
</linearGradient>
<linearGradient id="paint18_linear_5715_106509" x1="16.237" y1="8.81899" x2="19.686" y2="8.81899" gradientUnits="userSpaceOnUse">
<stop stop-color="#4D4D4D"/>
<stop offset="0.5" stop-color="white"/>
<stop offset="1" stop-color="#4D4D4D"/>
</linearGradient>
<linearGradient id="paint19_linear_5715_106509" x1="16.237" y1="29.514" x2="19.686" y2="29.514" gradientUnits="userSpaceOnUse">
<stop stop-color="#4D4D4D"/>
<stop offset="0.5" stop-color="white"/>
<stop offset="1" stop-color="#4D4D4D"/>
</linearGradient>
<linearGradient id="paint20_linear_5715_106509" x1="16.985" y1="11.196" x2="20.446" y2="11.196" gradientUnits="userSpaceOnUse">
<stop stop-color="#4D4D4D"/>
<stop offset="0.5" stop-color="white"/>
<stop offset="1" stop-color="#4D4D4D"/>
</linearGradient>
<linearGradient id="paint21_linear_5715_106509" x1="18.096" y1="5.329" x2="19.336" y2="5.329" gradientUnits="userSpaceOnUse">
<stop stop-color="#4D4D4D"/>
<stop offset="0.5" stop-color="white"/>
<stop offset="1" stop-color="#4D4D4D"/>
</linearGradient>
<linearGradient id="paint22_linear_5715_106509" x1="16.029" y1="5.59099" x2="21.403" y2="5.59099" gradientUnits="userSpaceOnUse">
<stop stop-color="#4D4D4D"/>
<stop offset="0.5" stop-color="white"/>
<stop offset="1" stop-color="#4D4D4D"/>
</linearGradient>
</defs>
</svg>
