<svg width="33" height="33" viewBox="0 0 33 33" fill="none" xmlns="http://www.w3.org/2000/svg">
<path d="M24.3331 2.08301L29.8971 7.88301V29.939H9.11206V30.011H29.9681V7.95601L24.3331 2.08301Z" fill="#909090"/>
<path d="M24.264 2.01102H9.04102V29.939H29.897V7.88402L24.264 2.01102Z" fill="#F4F4F4"/>
<path d="M8.88805 3.51102H2.49805V10.338H22.598V3.51102H8.88805Z" fill="#7A7B7C"/>
<path d="M22.7051 10.222H2.62805V3.39001H22.7051V10.222Z" fill="#DD2025"/>
<path d="M9.28503 4.54502H7.97803V9.34502H9.00603V7.72602L9.23303 7.73902C9.4536 7.73522 9.6721 7.69571 9.88003 7.62202C10.0623 7.55932 10.23 7.46032 10.373 7.33102C10.5185 7.20784 10.6332 7.05238 10.708 6.87702C10.8083 6.58552 10.8441 6.27572 10.813 5.96902C10.8068 5.74993 10.7684 5.53294 10.699 5.32502C10.6359 5.17493 10.5422 5.03962 10.4239 4.92771C10.3057 4.8158 10.1654 4.72975 10.012 4.67502C9.87944 4.62702 9.74244 4.59218 9.60303 4.57102C9.49745 4.55473 9.39085 4.54604 9.28403 4.54502M9.09503 6.83902H9.00603V5.35902H9.19903C9.28421 5.35288 9.36968 5.36595 9.44913 5.39728C9.52857 5.42861 9.59997 5.47739 9.65803 5.54002C9.77835 5.70103 9.84262 5.89702 9.84103 6.09802C9.84103 6.34402 9.84103 6.56702 9.61903 6.72402C9.45909 6.81198 9.27705 6.85259 9.09503 6.83902ZM12.766 4.53202C12.655 4.53202 12.547 4.54002 12.471 4.54302L12.233 4.54902H11.453V9.34902H12.371C12.7219 9.35863 13.0711 9.29917 13.399 9.17402C13.6629 9.06934 13.8966 8.9006 14.079 8.68302C14.2564 8.46347 14.3837 8.20786 14.452 7.93402C14.5306 7.62389 14.5689 7.30493 14.566 6.98502C14.5854 6.60718 14.5562 6.22841 14.479 5.85802C14.4058 5.58538 14.2687 5.33411 14.079 5.12502C13.9302 4.95618 13.7481 4.81999 13.544 4.72502C13.3688 4.64394 13.1845 4.58417 12.995 4.54702C12.9197 4.53457 12.8434 4.52888 12.767 4.53002M12.585 8.46702H12.485V5.40302H12.498C12.7042 5.3793 12.9128 5.4165 13.098 5.51002C13.2337 5.61835 13.3442 5.75482 13.422 5.91002C13.506 6.07335 13.5544 6.25262 13.564 6.43602C13.573 6.65602 13.564 6.83602 13.564 6.98502C13.5681 7.15666 13.5571 7.32832 13.531 7.49802C13.5002 7.67225 13.4432 7.84082 13.362 7.99802C13.2701 8.14417 13.1459 8.26733 12.999 8.35802C12.8756 8.43782 12.7295 8.47504 12.583 8.46402M17.663 4.54902H15.233V9.34902H16.261V7.44502H17.561V6.55302H16.261V5.44102H17.661V4.54902" fill="#464648"/>
<path d="M22.014 20.266C22.014 20.266 25.202 19.688 25.202 20.777C25.202 21.866 23.227 21.423 22.014 20.266ZM19.657 20.349C19.1505 20.4609 18.6569 20.6248 18.184 20.838L18.584 19.938C18.984 19.038 19.399 17.811 19.399 17.811C19.8763 18.6144 20.4317 19.3687 21.057 20.063C20.5854 20.1333 20.1181 20.2295 19.657 20.351V20.349ZM18.395 13.849C18.395 12.9 18.702 12.641 18.941 12.641C19.18 12.641 19.449 12.756 19.458 13.58C19.3802 14.4086 19.2067 15.2254 18.941 16.014C18.5771 15.3519 18.3888 14.6076 18.394 13.852L18.395 13.849ZM13.746 24.365C12.768 23.78 15.797 21.979 16.346 21.921C16.343 21.922 14.77 24.977 13.746 24.365ZM26.133 20.906C26.123 20.806 26.033 19.699 24.063 19.746C23.2419 19.7328 22.4212 19.7907 21.61 19.919C20.8243 19.1274 20.1477 18.2346 19.598 17.264C19.9443 16.2635 20.1539 15.2207 20.221 14.164C20.192 12.964 19.905 12.276 18.985 12.286C18.065 12.296 17.931 13.101 18.052 14.299C18.1706 15.1041 18.3941 15.8901 18.717 16.637C18.717 16.637 18.292 17.96 17.73 19.276C17.168 20.592 16.784 21.282 16.784 21.282C15.8068 21.6002 14.8868 22.0728 14.059 22.682C13.235 23.449 12.9 24.038 13.334 24.627C13.708 25.135 15.017 25.25 16.187 23.717C16.8087 22.9252 17.3766 22.0927 17.887 21.225C17.887 21.225 19.671 20.736 20.226 20.602C20.781 20.468 21.452 20.362 21.452 20.362C21.452 20.362 23.081 22.001 24.652 21.943C26.223 21.885 26.147 21.004 26.137 20.908" fill="#DD2025"/>
<path d="M24.187 2.08801V7.96101H29.82L24.187 2.08801Z" fill="#909090"/>
<path d="M24.264 2.01102V7.88402H29.897L24.264 2.01102Z" fill="#F4F4F4"/>
<path d="M9.20806 4.46802H7.90106V9.26802H8.93306V7.65002L9.16106 7.66302C9.38163 7.65923 9.60013 7.61971 9.80806 7.54602C9.99035 7.48329 10.1581 7.38431 10.3011 7.25502C10.4455 7.13151 10.5591 6.97608 10.6331 6.80102C10.7334 6.50952 10.7692 6.19972 10.7381 5.89302C10.7318 5.67393 10.6934 5.45695 10.6241 5.24902C10.5609 5.09893 10.4673 4.96362 10.349 4.85172C10.2307 4.73981 10.0904 4.65375 9.93706 4.59902C9.80386 4.55055 9.66619 4.51538 9.52606 4.49402C9.42049 4.47773 9.31388 4.46904 9.20706 4.46802M9.01806 6.76202H8.92906V5.28202H9.12306C9.20824 5.27588 9.29371 5.28896 9.37316 5.32029C9.45261 5.35161 9.524 5.40039 9.58206 5.46302C9.70238 5.62404 9.76666 5.82003 9.76506 6.02102C9.76506 6.26702 9.76506 6.49002 9.54306 6.64702C9.38313 6.73499 9.20108 6.77459 9.01906 6.76102M12.6891 4.45502C12.5781 4.45502 12.4701 4.46302 12.3941 4.46602L12.1591 4.47202H11.3791V9.27202H12.2971C12.6479 9.28164 12.9972 9.22218 13.3251 9.09702C13.589 8.99234 13.8227 8.8236 14.0051 8.60602C14.1824 8.38648 14.3097 8.13086 14.3781 7.85702C14.4566 7.54689 14.4949 7.22794 14.4921 6.90802C14.5115 6.53018 14.4822 6.15141 14.4051 5.78102C14.3318 5.50839 14.1947 5.25712 14.0051 5.04802C13.8563 4.87919 13.6741 4.74299 13.4701 4.64802C13.2948 4.56694 13.1105 4.50718 12.9211 4.47002C12.8457 4.45758 12.7694 4.45189 12.6931 4.45302M12.5111 8.39002H12.4111V5.32602H12.4241C12.6302 5.3023 12.8388 5.3395 13.0241 5.43302C13.1597 5.54135 13.2703 5.67782 13.3481 5.83302C13.432 5.99636 13.4804 6.17563 13.4901 6.35902C13.4991 6.57902 13.4901 6.75902 13.4901 6.90802C13.4941 7.07966 13.4831 7.25132 13.4571 7.42102C13.4262 7.59525 13.3693 7.76382 13.2881 7.92102C13.1962 8.06718 13.072 8.19033 12.9251 8.28102C12.8017 8.36082 12.6556 8.39805 12.5091 8.38702M17.5861 4.47202H15.1561V9.27202H16.1841V7.36802H17.4841V6.47602H16.1841V5.36402H17.5841V4.47202" fill="white"/>
</svg>
