<svg width="32" height="32" viewBox="0 0 32 32" fill="none" xmlns="http://www.w3.org/2000/svg">
<path d="M22.038 2H6.375C5.91128 2.00132 5.46692 2.18612 5.13902 2.51402C4.81112 2.84192 4.62632 3.28628 4.625 3.75V28.25C4.62632 28.7137 4.81112 29.1581 5.13902 29.486C5.46692 29.8139 5.91128 29.9987 6.375 30H25.625C26.0887 29.9987 26.5331 29.8139 26.861 29.486C27.1889 29.1581 27.3737 28.7137 27.375 28.25V6.856L22.038 2ZM22.563 4.844L24.226 6.375H22.563V4.844ZM6.375 28.25V3.75H20.813V8.125H25.626V28.25H6.375Z" fill="#C2C2C2"/>
<path d="M8.125 15.097H21.201V16.847H8.125V15.097ZM8.125 24.439H17.887V26.189H8.125V24.439ZM8.125 19.763H23.875V21.513H8.125V19.763ZM8.125 10.23H23.875V11.98H8.125V10.23Z" fill="#829EC2"/>
</svg>
