<svg width="24" height="25" viewBox="0 0 24 25" fill="none" xmlns="http://www.w3.org/2000/svg">
<path d="M12 0.5C12.3266 0.500043 12.6418 0.619942 12.8858 0.836954C13.1299 1.05397 13.2858 1.353 13.324 1.67733L13.3333 1.83333V23.1667C13.333 23.5065 13.2028 23.8334 12.9695 24.0805C12.7362 24.3276 12.4174 24.4763 12.0781 24.4962C11.7389 24.5161 11.4048 24.4058 11.1442 24.1877C10.8836 23.9695 10.7161 23.6601 10.676 23.3227L10.6667 23.1667V1.83333C10.6667 1.47971 10.8071 1.14057 11.0572 0.890524C11.3072 0.640476 11.6464 0.5 12 0.5ZM6.66667 4.5C7.02029 4.5 7.35943 4.64048 7.60948 4.89052C7.85952 5.14057 8 5.47971 8 5.83333V19.1667C8 19.5203 7.85952 19.8594 7.60948 20.1095C7.35943 20.3595 7.02029 20.5 6.66667 20.5C6.31305 20.5 5.97391 20.3595 5.72386 20.1095C5.47381 19.8594 5.33333 19.5203 5.33333 19.1667V5.83333C5.33333 5.47971 5.47381 5.14057 5.72386 4.89052C5.97391 4.64048 6.31305 4.5 6.66667 4.5ZM17.3333 4.5C17.687 4.5 18.0261 4.64048 18.2761 4.89052C18.5262 5.14057 18.6667 5.47971 18.6667 5.83333V19.1667C18.6667 19.5203 18.5262 19.8594 18.2761 20.1095C18.0261 20.3595 17.687 20.5 17.3333 20.5C16.9797 20.5 16.6406 20.3595 16.3905 20.1095C16.1405 19.8594 16 19.5203 16 19.1667V5.83333C16 5.47971 16.1405 5.14057 16.3905 4.89052C16.6406 4.64048 16.9797 4.5 17.3333 4.5ZM1.33333 8.5C1.68696 8.5 2.02609 8.64048 2.27614 8.89053C2.52619 9.14057 2.66667 9.47971 2.66667 9.83333V15.1667C2.66667 15.5203 2.52619 15.8594 2.27614 16.1095C2.02609 16.3595 1.68696 16.5 1.33333 16.5C0.979711 16.5 0.640573 16.3595 0.390524 16.1095C0.140476 15.8594 0 15.5203 0 15.1667V9.83333C0 9.47971 0.140476 9.14057 0.390524 8.89053C0.640573 8.64048 0.979711 8.5 1.33333 8.5ZM22.6667 8.5C22.9932 8.50004 23.3084 8.61994 23.5525 8.83695C23.7965 9.05397 23.9525 9.353 23.9907 9.67733L24 9.83333V15.1667C23.9996 15.5065 23.8695 15.8334 23.6362 16.0805C23.4029 16.3276 23.0841 16.4763 22.7448 16.4962C22.4056 16.5161 22.0715 16.4058 21.8109 16.1876C21.5503 15.9695 21.3828 15.6601 21.3427 15.3227L21.3333 15.1667V9.83333C21.3333 9.47971 21.4738 9.14057 21.7239 8.89053C21.9739 8.64048 22.313 8.5 22.6667 8.5Z" fill="white"/>
</svg>
