<svg width="28" height="28" viewBox="0 0 28 28" fill="none" xmlns="http://www.w3.org/2000/svg">
<rect x="0.5" y="0.5" width="27" height="27" rx="2.5" fill="white"/>
<path d="M15.2249 17.8125V21.8583C15.2249 21.9283 15.1974 21.9955 15.1483 22.0454C15.0992 22.0953 15.0324 22.1239 14.9624 22.125H13.0374C12.9674 22.1239 12.9007 22.0953 12.8516 22.0454C12.8024 21.9955 12.7749 21.9283 12.7749 21.8583V17.8125M13.9999 5.875C14.8409 5.875 15.6474 6.20907 16.2421 6.80372C16.8367 7.39836 17.1708 8.20488 17.1708 9.04583V12.9708C17.1708 13.8118 16.8367 14.6183 16.2421 15.213C15.6474 15.8076 14.8409 16.1417 13.9999 16.1417V16.1417C13.159 16.1417 12.3525 15.8076 11.7578 15.213C11.1632 14.6183 10.8291 13.8118 10.8291 12.9708V9.04583C10.8291 8.20488 11.1632 7.39836 11.7578 6.80372C12.3525 6.20907 13.159 5.875 13.9999 5.875V5.875Z" stroke="#DD4377" stroke-linecap="round" stroke-linejoin="round"/>
<path d="M9.09595 13.9125C9.32138 15.0473 9.9334 16.0688 10.8277 16.8029C11.7219 17.537 12.8431 17.9383 14.0001 17.9383C15.1571 17.9383 16.2783 17.537 17.1726 16.8029C18.0668 16.0688 18.6788 15.0473 18.9043 13.9125" stroke="#DD4377" stroke-linecap="round" stroke-linejoin="round"/>
<rect x="0.5" y="0.5" width="27" height="27" rx="2.5" stroke="#DD4377"/>
</svg>
