<svg width="24" height="25" viewBox="0 0 24 25" fill="none" xmlns="http://www.w3.org/2000/svg">
<path d="M6.411 17.75H18.75C19.1478 17.75 19.5294 17.592 19.8107 17.3107C20.092 17.0294 20.25 16.6478 20.25 16.25V6.5C20.25 6.10218 20.092 5.72064 19.8107 5.43934C19.5294 5.15804 19.1478 5 18.75 5H5.25C4.85218 5 4.47064 5.15804 4.18934 5.43934C3.90804 5.72064 3.75 6.10218 3.75 6.5V19.88L6.411 17.75ZM6.9375 19.25L3.468 22.025C3.35772 22.1131 3.22483 22.1682 3.0846 22.1841C2.94438 22.2001 2.8025 22.1761 2.67529 22.115C2.54807 22.0539 2.44068 21.9581 2.36545 21.8387C2.29022 21.7193 2.2502 21.5811 2.25 21.44V6.5C2.25 5.70435 2.56607 4.94129 3.12868 4.37868C3.69129 3.81607 4.45435 3.5 5.25 3.5H18.75C19.5456 3.5 20.3087 3.81607 20.8713 4.37868C21.4339 4.94129 21.75 5.70435 21.75 6.5V16.25C21.75 17.0456 21.4339 17.8087 20.8713 18.3713C20.3087 18.9339 19.5456 19.25 18.75 19.25H6.9375Z" fill="white"/>
</svg>
