<svg width="28" height="24" viewBox="0 0 28 24" fill="none" xmlns="http://www.w3.org/2000/svg">
<path d="M9.95 12C12.9327 12 15.35 9.31359 15.35 6C15.35 2.68641 12.9327 0 9.95 0C6.96734 0 4.55 2.68641 4.55 6C4.55 9.31359 6.96734 12 9.95 12ZM12.0889 14.25H7.81109C3.77248 14.25 0.5 17.8875 0.5 22.3734C0.5 23.2734 1.15475 24 1.96222 24H17.9361C18.7461 24 19.4 23.2734 19.4 22.3734C19.4 17.8875 16.1263 14.25 12.0889 14.25ZM20.712 15H17.5965C19.535 16.7672 20.75 19.4109 20.75 22.3734C20.75 22.9734 20.5897 23.5266 20.3281 24H26.15C26.8967 24 27.5 23.325 27.5 22.4578C27.5 18.3563 24.4794 15 20.712 15ZM18.725 12C21.3364 12 23.45 9.65156 23.45 6.75C23.45 3.84844 21.3364 1.5 18.725 1.5C17.6657 1.5 16.6983 1.90102 15.9103 2.55516C16.3963 3.59203 16.7 4.75313 16.7 6C16.7 7.665 16.1967 9.19406 15.3673 10.4395C16.2233 11.4 17.4088 12 18.725 12Z" fill="#306FDB"/>
</svg>
