<svg width="42" height="42" viewBox="0 0 42 42" fill="none" xmlns="http://www.w3.org/2000/svg">
<rect width="42" height="42" rx="6" fill="#FBFBFD"/>
<g clip-path="url(#clip0_3482_101868)">
<path d="M16.95 21C19.9327 21 22.35 18.3136 22.35 15C22.35 11.6864 19.9327 9 16.95 9C13.9673 9 11.55 11.6864 11.55 15C11.55 18.3136 13.9673 21 16.95 21ZM19.0889 23.25H14.8111C10.7725 23.25 7.5 26.8875 7.5 31.3734C7.5 32.2734 8.15475 33 8.96222 33H24.9361C25.7461 33 26.4 32.2734 26.4 31.3734C26.4 26.8875 23.1263 23.25 19.0889 23.25ZM27.712 24H24.5965C26.535 25.7672 27.75 28.4109 27.75 31.3734C27.75 31.9734 27.5897 32.5266 27.3281 33H33.15C33.8967 33 34.5 32.325 34.5 31.4578C34.5 27.3563 31.4794 24 27.712 24ZM25.725 21C28.3364 21 30.45 18.6516 30.45 15.75C30.45 12.8484 28.3364 10.5 25.725 10.5C24.6657 10.5 23.6983 10.901 22.9103 11.5552C23.3963 12.592 23.7 13.7531 23.7 15C23.7 16.665 23.1967 18.1941 22.3673 19.4395C23.2233 20.4 24.4088 21 25.725 21Z" fill="#306FDB"/>
</g>
<defs>
<clipPath id="clip0_3482_101868">
<rect width="27" height="24" fill="white" transform="translate(7.5 9)"/>
</clipPath>
</defs>
</svg>
