<svg width="45" height="45" viewBox="0 0 45 45" fill="none" xmlns="http://www.w3.org/2000/svg">
<path d="M31.875 15H33.75C35.7391 15 37.6468 15.7902 39.0533 17.1967C40.4598 18.6032 41.25 20.5109 41.25 22.5C41.25 24.4891 40.4598 26.3968 39.0533 27.8033C37.6468 29.2098 35.7391 30 33.75 30H31.875" stroke="#FDFDFD" stroke-width="2" stroke-linecap="round" stroke-linejoin="round"/>
<path d="M26.25 3.75V7.5M5.625 15H31.875V31.875C31.875 33.8641 31.0848 35.7718 29.6783 37.1783C28.2718 38.5848 26.3641 39.375 24.375 39.375H13.125C11.1359 39.375 9.22822 38.5848 7.8217 37.1783C6.41518 35.7718 5.625 33.8641 5.625 31.875V15ZM11.25 3.75V7.5V3.75ZM18.75 3.75V7.5V3.75Z" stroke="#FDFDFD" stroke-width="2" stroke-linecap="round" stroke-linejoin="round"/>
</svg>
