<svg width="28" height="36" viewBox="0 0 28 36" fill="none" xmlns="http://www.w3.org/2000/svg">
<path d="M19.125 0.916992H3.75C1.87083 0.916992 0.333332 2.45449 0.333332 4.33366V31.667C0.333332 33.5462 1.87083 35.0837 3.75 35.0837H24.25C26.1292 35.0837 27.6667 33.5462 27.6667 31.667V9.45866L19.125 0.916992ZM3.75 31.667V4.33366H17.4167V11.167H24.25V31.667H3.75ZM20.8333 14.5837V23.1253C20.8333 26.9007 17.7754 29.9587 14 29.9587C10.2246 29.9587 7.16667 26.9007 7.16667 23.1253V12.0212C7.16581 11.4223 7.2909 10.83 7.53381 10.2827C7.77672 9.73531 8.13202 9.24516 8.57665 8.84403C9.02128 8.4429 9.54529 8.13975 10.1147 7.95427C10.6841 7.7688 11.2861 7.70513 11.8817 7.76741C14.1025 7.98949 15.7083 10.0224 15.7083 12.2603V23.1253H12.2917V12.0212C12.2917 11.5428 11.9158 11.167 11.4375 11.167C10.9592 11.167 10.5833 11.5428 10.5833 12.0212V23.1253C10.5833 25.0045 12.1208 26.542 14 26.542C15.8792 26.542 17.4167 25.0045 17.4167 23.1253V14.5837H20.8333Z" fill="white"/>
</svg>
