<svg width="34" height="34" viewBox="0 0 34 34" fill="none" xmlns="http://www.w3.org/2000/svg">
<path d="M13.5833 27.25V27.0672C13.5833 25.7091 12.736 24.5252 11.6751 23.6779C10.2905 22.5736 9.28328 21.0662 8.793 19.3644C8.30271 17.6625 8.35357 15.8503 8.93854 14.1786C9.5235 12.5069 10.6136 11.0584 12.0581 10.0335C13.5025 9.00867 15.2298 8.45813 17.0009 8.45813C18.7719 8.45813 20.4992 9.00867 21.9437 10.0335C23.3881 11.0584 24.4782 12.5069 25.0632 14.1786C25.6481 15.8503 25.699 17.6625 25.2087 19.3644C24.7184 21.0662 23.7113 22.5736 22.3266 23.6779C21.264 24.5269 20.4167 25.7091 20.4167 27.0672V27.25M13.5833 27.25V30.6667C13.5833 31.1197 13.7633 31.5543 14.0837 31.8746C14.4041 32.195 14.8386 32.375 15.2917 32.375H18.7083C19.1614 32.375 19.5959 32.195 19.9163 31.8746C20.2367 31.5543 20.4167 31.1197 20.4167 30.6667V27.25M13.5833 27.25H20.4167M30.6667 17H32.375M3.33333 17H1.625M17 3.33333V1.625M26.664 7.33596L27.8718 6.12817M7.33767 7.33596L6.12817 6.12817M17 22.125V18.7083" stroke="white" stroke-width="2" stroke-linecap="round" stroke-linejoin="round"/>
</svg>
