<svg width="32" height="32" viewBox="0 0 32 32" fill="none" xmlns="http://www.w3.org/2000/svg">
<path d="M31.6055 23.3711C31.5915 23.3323 31.57 23.2966 31.5422 23.2661C31.5144 23.2356 31.4808 23.2109 31.4434 23.1935C31.406 23.1761 31.3655 23.1662 31.3242 23.1645C31.283 23.1628 31.2418 23.1693 31.2031 23.1836L28.8125 24.0547V3.03125C28.8125 1.5625 27.625 0.375 26.1562 0.375H5.84375C4.375 0.375 3.1875 1.5625 3.1875 3.03125V24.0547L0.792969 23.1836C0.757812 23.1719 0.722656 23.1641 0.6875 23.1641C0.515625 23.1641 0.375 23.3047 0.375 23.4766V25.8047C0.375 25.9336 0.457031 26.0508 0.582031 26.0977L15.5703 31.5508C15.8477 31.6523 16.1484 31.6523 16.4258 31.5508L31.418 26.1016C31.543 26.0547 31.625 25.9375 31.625 25.8086V23.4805C31.625 23.4414 31.6172 23.4062 31.6055 23.3711ZM16 28.7148L6 25.0781V3.1875H26V25.0781L16 28.7148ZM21.8047 8.1875H19.6758C19.5586 8.1875 19.4492 8.25391 19.3984 8.35938L16.0898 14.9531H15.9609L12.6523 8.35938C12.6264 8.30796 12.5868 8.2647 12.5379 8.23437C12.4889 8.20404 12.4326 8.18782 12.375 8.1875H10.1992C10.1484 8.1875 10.0977 8.19922 10.0508 8.22656C9.89844 8.30859 9.84375 8.5 9.92578 8.64844L13.9844 16.1328H11.7578C11.5859 16.1328 11.4453 16.2734 11.4453 16.4453V17.5039C11.4453 17.6758 11.5859 17.8164 11.7578 17.8164H14.7266V19.3398H11.7578C11.5859 19.3398 11.4453 19.4805 11.4453 19.6523V20.7109C11.4453 20.8828 11.5859 21.0234 11.7578 21.0234H14.7266V23.5C14.7266 23.6719 14.8672 23.8125 15.0391 23.8125H16.9883C17.1602 23.8125 17.3008 23.6719 17.3008 23.5V21.0195H20.2812C20.4531 21.0195 20.5938 20.8789 20.5938 20.707V19.6484C20.5938 19.4766 20.4531 19.3359 20.2812 19.3359H17.3008V17.8125H20.2812C20.4531 17.8125 20.5938 17.6719 20.5938 17.5V16.4414C20.5938 16.2695 20.4531 16.1289 20.2812 16.1289H18.0312L22.082 8.64453C22.1055 8.59766 22.1211 8.54688 22.1211 8.49609C22.1172 8.32812 21.9766 8.1875 21.8047 8.1875Z" fill="white"/>
</svg>
