<svg width="40" height="40" viewBox="0 0 40 40" fill="none" xmlns="http://www.w3.org/2000/svg">
<path d="M8.15083 8.12699C8.20121 7.72383 8.39712 7.35296 8.70174 7.08409C9.00636 6.81523 9.3987 6.6669 9.80499 6.66699H30.195C30.6013 6.6669 30.9936 6.81523 31.2982 7.08409C31.6029 7.35296 31.7988 7.72383 31.8492 8.12699L34.7658 31.4603C34.7951 31.6948 34.7742 31.9329 34.7045 32.1588C34.6348 32.3846 34.5178 32.593 34.3613 32.7702C34.2049 32.9473 34.0126 33.0892 33.7971 33.1863C33.5817 33.2835 33.348 33.3337 33.1117 33.3337H6.88833C6.65198 33.3337 6.41832 33.2835 6.20287 33.1863C5.98741 33.0892 5.79508 32.9473 5.63864 32.7702C5.4822 32.593 5.36523 32.3846 5.2955 32.1588C5.22576 31.9329 5.20485 31.6948 5.23416 31.4603L8.15083 8.12699V8.12699Z" stroke="white" stroke-width="4" stroke-linejoin="round"/>
<path d="M12.5 15C12.5 15 14.1667 18.3333 20 18.3333C25.8333 18.3333 27.5 15 27.5 15" stroke="white" stroke-width="4" stroke-linecap="round" stroke-linejoin="round"/>
</svg>
