<svg width="17" height="17" viewBox="0 0 17 17" fill="none" xmlns="http://www.w3.org/2000/svg">
<path d="M7.22499 1.69995C6.96122 1.69981 6.70389 1.78149 6.48848 1.93373C6.27306 2.08596 6.11017 2.30126 6.02224 2.54995H4.67499C4.33684 2.54995 4.01254 2.68428 3.77343 2.92339C3.53432 3.1625 3.39999 3.4868 3.39999 3.82495V14.025C3.39999 14.3631 3.53432 14.6874 3.77343 14.9265C4.01254 15.1656 4.33684 15.3 4.67499 15.3H12.325C12.6631 15.3 12.9874 15.1656 13.2266 14.9265C13.4657 14.6874 13.6 14.3631 13.6 14.025V3.82495C13.6 3.4868 13.4657 3.1625 13.2266 2.92339C12.9874 2.68428 12.6631 2.54995 12.325 2.54995H10.9777C10.8898 2.30126 10.7269 2.08596 10.5115 1.93373C10.2961 1.78149 10.0388 1.69981 9.77499 1.69995H7.22499ZM6.79999 2.97495C6.79999 2.86223 6.84477 2.75413 6.92447 2.67443C7.00418 2.59473 7.11228 2.54995 7.22499 2.54995H9.77499C9.88771 2.54995 9.99581 2.59473 10.0755 2.67443C10.1552 2.75413 10.2 2.86223 10.2 2.97495C10.2 3.08767 10.1552 3.19577 10.0755 3.27547C9.99581 3.35517 9.88771 3.39995 9.77499 3.39995H7.22499C7.11228 3.39995 7.00418 3.35517 6.92447 3.27547C6.84477 3.19577 6.79999 3.08767 6.79999 2.97495ZM10.9259 8.37585L7.95089 11.3509C7.91141 11.3904 7.86451 11.4218 7.81288 11.4433C7.76125 11.4647 7.7059 11.4757 7.64999 11.4757C7.59409 11.4757 7.53874 11.4647 7.48711 11.4433C7.43547 11.4218 7.38857 11.3904 7.34909 11.3509L6.07409 10.0759C6.03458 10.0363 6.00323 9.98943 5.98185 9.9378C5.96046 9.88617 5.94946 9.83083 5.94946 9.77495C5.94946 9.71907 5.96046 9.66373 5.98185 9.6121C6.00323 9.56048 6.03458 9.51357 6.07409 9.47405C6.1539 9.39425 6.26213 9.34941 6.37499 9.34941C6.43088 9.34941 6.48621 9.36042 6.53784 9.38181C6.58947 9.40319 6.63638 9.43454 6.67589 9.47405L7.64999 10.449L10.3241 7.77405C10.4039 7.69425 10.5121 7.64941 10.625 7.64941C10.7379 7.64941 10.8461 7.69425 10.9259 7.77405C11.0057 7.85385 11.0505 7.96209 11.0505 8.07495C11.0505 8.18781 11.0057 8.29605 10.9259 8.37585Z" fill="#306FDB"/>
</svg>
