<svg width="55" height="55" viewBox="0 0 55 55" fill="none" xmlns="http://www.w3.org/2000/svg">
<path d="M21.481 18.2011C25.7118 24.5633 23.8043 28.7101 19.9879 31.6248C16.1715 34.5396 11.8914 35.1186 7.66057 28.7564C3.42975 22.3942 3.0938 14.8738 6.91021 11.959C10.7266 9.04427 17.2502 11.8389 21.481 18.2011Z" fill="#7132F8" fill-opacity="0.25"/>
<path d="M31.8448 33.814C34.5646 37.9039 35.412 42.2563 29.4753 46.7903C23.5387 51.3244 16.5213 51.6845 13.8015 47.5945C11.0817 43.5045 13.6894 36.5134 19.626 31.9793C25.5627 27.4452 29.125 29.724 31.8448 33.814Z" fill="#7132F8"/>
<path d="M40.7982 7.40555C43.518 11.4955 40.9102 18.4867 34.9736 23.0208C29.037 27.5548 25.9354 24.9242 23.2155 20.8342C20.4957 16.7443 19.1877 12.7438 25.1243 8.2097C31.0609 3.67561 38.0784 3.31558 40.7982 7.40555Z" fill="#7132F8" fill-opacity="0.5"/>
<path d="M33.519 36.5057C29.2882 30.1435 31.2504 26.079 35.0668 23.1642C38.8832 20.2495 43.1086 19.5882 47.3394 25.9504C51.5702 32.3125 51.9062 39.833 48.0898 42.7477C44.2734 45.6625 37.7498 42.8678 33.519 36.5057Z" fill="#7132F8" fill-opacity="0.75"/>
</svg>
