<svg width="31" height="31" viewBox="0 0 31 31" fill="none" xmlns="http://www.w3.org/2000/svg">
<path d="M23.9375 3.3125H7.0625C6.56522 3.3125 6.08831 3.51004 5.73667 3.86167C5.38504 4.21331 5.1875 4.69022 5.1875 5.1875V25.8125C5.1875 26.3098 5.38504 26.7867 5.73667 27.1383C6.08831 27.49 6.56522 27.6875 7.0625 27.6875H23.9375C24.4348 27.6875 24.9117 27.49 25.2633 27.1383C25.615 26.7867 25.8125 26.3098 25.8125 25.8125V5.1875C25.8125 4.69022 25.615 4.21331 25.2633 3.86167C24.9117 3.51004 24.4348 3.3125 23.9375 3.3125ZM23.9375 25.8125H7.0625V5.1875H23.9375V25.8125ZM11.75 9.40625C11.75 9.68438 11.6675 9.95626 11.513 10.1875C11.3585 10.4188 11.1389 10.599 10.8819 10.7055C10.6249 10.8119 10.3422 10.8397 10.0694 10.7855C9.79662 10.7312 9.54605 10.5973 9.34938 10.4006C9.15271 10.204 9.01878 9.95338 8.96452 9.6806C8.91026 9.40781 8.93811 9.12506 9.04454 8.8681C9.15098 8.61114 9.33122 8.39152 9.56248 8.237C9.79374 8.08247 10.0656 8 10.3438 8C10.7167 8 11.0744 8.14816 11.3381 8.41188C11.6018 8.6756 11.75 9.03329 11.75 9.40625ZM11.75 21.5938C11.75 21.8719 11.6675 22.1438 11.513 22.375C11.3585 22.6063 11.1389 22.7865 10.8819 22.893C10.6249 22.9994 10.3422 23.0272 10.0694 22.973C9.79662 22.9187 9.54605 22.7848 9.34938 22.5881C9.15271 22.3915 9.01878 22.1409 8.96452 21.8681C8.91026 21.5953 8.93811 21.3126 9.04454 21.0556C9.15098 20.7986 9.33122 20.579 9.56248 20.4245C9.79374 20.27 10.0656 20.1875 10.3438 20.1875C10.7167 20.1875 11.0744 20.3357 11.3381 20.5994C11.6018 20.8631 11.75 21.2208 11.75 21.5938ZM11.75 15.5C11.75 15.7781 11.6675 16.05 11.513 16.2813C11.3585 16.5125 11.1389 16.6928 10.8819 16.7992C10.6249 16.9056 10.3422 16.9335 10.0694 16.8792C9.79662 16.825 9.54605 16.691 9.34938 16.4944C9.15271 16.2977 9.01878 16.0471 8.96452 15.7743C8.91026 15.5016 8.93811 15.2188 9.04454 14.9619C9.15098 14.7049 9.33122 14.4853 9.56248 14.3307C9.79374 14.1762 10.0656 14.0938 10.3438 14.0938C10.7167 14.0938 11.0744 14.2419 11.3381 14.5056C11.6018 14.7694 11.75 15.127 11.75 15.5Z" fill="white"/>
</svg>
